<?xml version="1.0" standalone="no"?>
<!DOCTYPE svg PUBLIC "-//W3C//DTD SVG 20010904//EN"
 "http://www.w3.org/TR/2001/REC-SVG-20010904/DTD/svg10.dtd">
<svg version="1.0" xmlns="http://www.w3.org/2000/svg"
 width="512.000000pt" height="512.000000pt" viewBox="0 0 512.000000 512.000000"
 preserveAspectRatio="xMidYMid meet">

<g transform="translate(0.000000,512.000000) scale(0.100000,-0.100000)"
fill="#000000" stroke="none">
<path d="M105 5106 c-37 -17 -80 -62 -94 -99 -17 -45 -15 -869 3 -910 18 -43
61 -70 111 -70 51 0 81 16 105 56 19 30 20 52 20 322 l0 290 573 -571 c314
-315 582 -577 594 -583 93 -47 209 69 162 162 -6 12 -268 280 -583 595 l-571
572 284 0 c241 0 288 2 317 16 87 41 85 177 -2 219 -45 21 -872 22 -919 1z"/>
<path d="M4094 5104 c-85 -42 -86 -177 0 -218 29 -14 76 -16 317 -16 l284 0
-578 -578 c-556 -556 -579 -580 -584 -622 -13 -97 85 -172 170 -129 12 6 280
268 595 583 l572 571 0 -290 c0 -270 1 -292 20 -322 24 -40 54 -56 105 -56 50
0 93 27 111 70 20 48 20 869 0 916 -16 39 -61 82 -99 96 -18 7 -177 11 -455
11 -360 0 -432 -3 -458 -16z"/>
<path d="M1940 3464 c-30 -8 -73 -26 -96 -39 -63 -37 -149 -136 -176 -202
l-23 -58 0 -605 0 -605 24 -60 c34 -84 142 -192 226 -226 l60 -24 578 -3 c627
-3 650 -1 742 52 51 31 119 99 151 153 54 92 55 112 52 740 -3 572 -3 579 -25
633 -41 100 -133 191 -235 233 -52 22 -63 22 -638 24 -492 2 -594 0 -640 -13z
m1216 -260 c15 -11 37 -33 48 -48 21 -27 21 -37 21 -596 0 -559 0 -569 -21
-596 -11 -15 -33 -37 -48 -48 -27 -21 -37 -21 -596 -21 -559 0 -569 0 -596 21
-15 11 -37 33 -48 48 -21 27 -21 40 -24 569 -2 298 0 556 3 574 7 40 49 91 90
109 24 11 139 13 587 11 545 -2 557 -2 584 -23z"/>
<path d="M1420 1583 c-8 -3 -275 -265 -592 -582 l-578 -576 0 284 c0 241 -2
288 -16 317 -41 87 -177 85 -219 -2 -21 -45 -23 -867 -1 -917 16 -39 61 -82
99 -96 45 -17 869 -15 910 3 43 18 70 61 70 111 0 51 -16 81 -56 105 -30 19
-52 20 -322 20 l-290 0 571 573 c315 314 577 582 583 594 27 52 4 125 -49 157
-27 15 -79 20 -110 9z"/>
<path d="M3588 1573 c-41 -26 -62 -72 -55 -123 5 -42 28 -66 584 -622 l578
-578 -290 0 c-270 0 -292 -1 -322 -20 -40 -24 -56 -54 -56 -105 0 -50 27 -93
70 -111 48 -20 869 -20 916 0 39 16 82 61 96 99 7 18 11 177 11 454 0 373 -2
429 -16 459 -41 86 -177 86 -218 0 -14 -29 -16 -76 -16 -317 l0 -284 -579 579
-579 579 -48 4 c-35 2 -57 -1 -76 -14z"/>
</g>
</svg>
